<?xml version="1.0" encoding="utf-8"?>
<!-- Svg Vector Icons : http://www.onlinewebfonts.com/icon -->
<!DOCTYPE svg PUBLIC "-//W3C//DTD SVG 1.1//EN" "http://www.w3.org/Graphics/SVG/1.1/DTD/svg11.dtd">
<svg version="1.1" xmlns="http://www.w3.org/2000/svg" xmlns:xlink="http://www.w3.org/1999/xlink" x="0px" y="0px" viewBox="0 0 256 256" enable-background="new 0 0 256 256" xml:space="preserve">
<metadata> Svg Vector Icons : http://www.onlinewebfonts.com/icon </metadata>
<g><g><g><path fill="#000000" d="M112.9,10.6c-20.8,3-38.7,10.4-55.8,23C51,38.2,38.3,51,33.7,57.1C20.5,74.8,12.9,94,10.4,115.3c-0.9,7.5-0.4,25.3,0.9,32.2c2.3,11.9,5.5,21.6,10.7,32.2c6.6,13.2,13.4,22.5,24.2,32.9c17.4,16.9,38.3,27.6,62.2,32c7.5,1.4,23.7,1.9,31.8,1c26.5-2.9,50.1-14,69.6-32.8c15.2-14.7,25.5-31.5,31.6-51.3c3.8-12.5,5-22.5,4.6-37.1c-0.5-18.2-4.1-32.7-12.5-49.1c-6.3-12.4-13.3-21.8-23.7-31.9c-17.3-16.9-37.8-27.4-62.2-32C140.6,10,120.1,9.6,112.9,10.6z M144.8,21.1c34.2,5.4,63,25.9,78.8,56.1c7.7,14.6,11.6,29.5,12.3,46.7c2.5,63.4-48.5,114.3-111.9,111.9c-13.1-0.6-24.7-2.9-35.7-7.2c-36.2-14.3-60.9-45.2-67.2-84.2c-1.2-7.4-1.2-25.3,0-32.9c6.1-39,31-70.2,67.4-84.4c8.8-3.5,19-5.8,30.2-7C122.9,19.8,140,20.4,144.8,21.1z"/><path fill="#000000" d="M72.1,61.9c-4.6,1.7-9.1,6.6-10.4,11.1c-0.4,1.5-0.5,17.4-0.4,56l0.2,54l1.2,2.4c1.6,3.1,4.9,6.4,8,8l2.4,1.2h55h55l2.4-1.2c3.1-1.6,6.4-4.9,8-8l1.2-2.4v-55v-55l-1.2-2.4c-1.6-3.1-4.9-6.4-8-8l-2.4-1.2l-54.5-0.1C83,61.2,73.7,61.3,72.1,61.9z M182,71.9c2.6,1.1,2.8,2.6,2.7,17.4l-0.2,12.8H128H71.5l-0.2-12.8c-0.2-14.6,0.1-16.3,2.6-17.3C76.3,70.9,179.5,70.8,182,71.9z M102.9,112.7c0,0.2-0.9,1.4-2.1,2.6c-7.6,8.6-10.4,20.3-7.7,31.3c3.9,15.6,19.1,27.6,34.9,27.6c16.2,0,31.5-12.5,35.2-28.9c0.8-3.5,0.8-11,0-14.3c-1.4-5.8-5.5-13.4-8.8-16.5c-0.7-0.7-1.3-1.4-1.3-1.7s7.1-0.4,15.7-0.3l15.7,0.2l0.2,33.4c0.1,23.4,0,34-0.4,35.3c-1.1,3.6,2.1,3.4-56.2,3.4c-37.6,0-52.7-0.2-53.9-0.6c-3.1-1.1-3-0.4-3-37.5c0-18.5,0.2-33.8,0.4-33.9C72,112.3,102.9,112.3,102.9,112.7z M136.1,113.7c10.5,3.1,17.5,12.8,17.5,24.5c0,7.2-2.2,13.1-6.6,17.7c-5.3,5.6-10.8,7.9-19,7.9c-8.2,0-13.7-2.3-19-7.9c-4.4-4.7-6.6-10.5-6.6-17.5c0-11.5,6.7-21.2,16.9-24.5C123.1,112.6,132.2,112.5,136.1,113.7z"/><path fill="#000000" d="M155.7,83c-2,1.7-2.4,3.7-1.4,5.9c1.2,2.5,2.5,2.9,10.1,2.9h6.8l1.5-1.5c1.7-1.7,1.9-3.8,0.8-6c-1.2-2.2-2.7-2.6-9.8-2.6C157.5,81.7,157.2,81.8,155.7,83z"/></g></g></g>
</svg>